<mxfile host="Electron" modified="2024-01-12T08:23:40.500Z" agent="Mozilla/5.0 (Windows NT 10.0; Win64; x64) AppleWebKit/537.36 (KHTML, like Gecko) draw.io/21.2.1 Chrome/112.0.5615.87 Electron/24.1.2 Safari/537.36" etag="ady9Vo50NeM1q2bPTI9L" version="21.2.1" type="device">
  <diagram name="第 1 页" id="zCBd1ljM8AAdcnbt_Ibt">
    <mxGraphModel dx="1434" dy="836" grid="1" gridSize="10" guides="1" tooltips="1" connect="1" arrows="1" fold="1" page="1" pageScale="1" pageWidth="827" pageHeight="1169" math="0" shadow="0">
      <root>
        <mxCell id="0" />
        <mxCell id="1" parent="0" />
        <mxCell id="Ho3f436NwtFqieBIYehu-11" value="" style="rounded=0;whiteSpace=wrap;html=1;fillColor=#dae8fc;strokeColor=#000000;" vertex="1" parent="1">
          <mxGeometry x="329" y="320" width="180" height="250" as="geometry" />
        </mxCell>
        <mxCell id="Ho3f436NwtFqieBIYehu-1" value="&lt;font style=&quot;font-size: 24px;&quot;&gt;MySQL&lt;br&gt;ORACLE&lt;/font&gt;" style="shape=cylinder3;whiteSpace=wrap;html=1;boundedLbl=1;backgroundOutline=1;size=15;fillColor=#d5e8d4;strokeColor=#000000;" vertex="1" parent="1">
          <mxGeometry x="110" y="200" width="140" height="210" as="geometry" />
        </mxCell>
        <mxCell id="Ho3f436NwtFqieBIYehu-3" value="&lt;font style=&quot;font-size: 24px;&quot;&gt;BMDB&lt;/font&gt;" style="shape=cylinder3;whiteSpace=wrap;html=1;boundedLbl=1;backgroundOutline=1;size=15;fillColor=#d5e8d4;strokeColor=#000000;" vertex="1" parent="1">
          <mxGeometry x="580" y="200" width="140" height="210" as="geometry" />
        </mxCell>
        <mxCell id="Ho3f436NwtFqieBIYehu-5" value="" style="shape=document;whiteSpace=wrap;html=1;boundedLbl=1;fillColor=#e1d5e7;strokeColor=#000000;" vertex="1" parent="1">
          <mxGeometry x="349" y="382" width="120" height="80" as="geometry" />
        </mxCell>
        <mxCell id="Ho3f436NwtFqieBIYehu-9" value="" style="shape=document;whiteSpace=wrap;html=1;boundedLbl=1;fillColor=#e1d5e7;strokeColor=#000000;" vertex="1" parent="1">
          <mxGeometry x="359" y="392" width="120" height="80" as="geometry" />
        </mxCell>
        <mxCell id="Ho3f436NwtFqieBIYehu-10" value="&lt;font style=&quot;font-size: 20px;&quot;&gt;snapshot&lt;/font&gt;" style="shape=document;whiteSpace=wrap;html=1;boundedLbl=1;fillColor=#e1d5e7;strokeColor=#000000;" vertex="1" parent="1">
          <mxGeometry x="369" y="402" width="120" height="80" as="geometry" />
        </mxCell>
        <mxCell id="Ho3f436NwtFqieBIYehu-12" value="&lt;font style=&quot;font-size: 24px;&quot;&gt;voyager&lt;br&gt;export-dir&lt;/font&gt;" style="text;html=1;strokeColor=none;fillColor=none;align=center;verticalAlign=middle;whiteSpace=wrap;rounded=0;fontSize=22;" vertex="1" parent="1">
          <mxGeometry x="364" y="332" width="110" height="30" as="geometry" />
        </mxCell>
        <mxCell id="Ho3f436NwtFqieBIYehu-14" value="" style="shape=cylinder3;whiteSpace=wrap;html=1;boundedLbl=1;backgroundOutline=1;size=15;rotation=90;fillColor=#e1d5e7;strokeColor=#000000;" vertex="1" parent="1">
          <mxGeometry x="389" y="468" width="60" height="120" as="geometry" />
        </mxCell>
        <mxCell id="Ho3f436NwtFqieBIYehu-15" value="&lt;font style=&quot;font-size: 20px;&quot;&gt;event queue&lt;/font&gt;" style="text;html=1;strokeColor=none;fillColor=none;align=center;verticalAlign=middle;whiteSpace=wrap;rounded=0;" vertex="1" parent="1">
          <mxGeometry x="375" y="511" width="77" height="30" as="geometry" />
        </mxCell>
        <mxCell id="Ho3f436NwtFqieBIYehu-18" value="" style="curved=1;endArrow=classic;html=1;rounded=0;exitX=1;exitY=0.75;exitDx=0;exitDy=0;entryX=0.5;entryY=1;entryDx=0;entryDy=0;entryPerimeter=0;" edge="1" parent="1" source="Ho3f436NwtFqieBIYehu-11" target="Ho3f436NwtFqieBIYehu-3">
          <mxGeometry width="50" height="50" relative="1" as="geometry">
            <mxPoint x="570" y="490" as="sourcePoint" />
            <mxPoint x="620" y="440" as="targetPoint" />
            <Array as="points">
              <mxPoint x="620" y="480" />
              <mxPoint x="640" y="450" />
            </Array>
          </mxGeometry>
        </mxCell>
        <mxCell id="Ho3f436NwtFqieBIYehu-19" value="" style="curved=1;endArrow=none;html=1;rounded=0;exitX=0;exitY=0.75;exitDx=0;exitDy=0;endFill=0;startArrow=classic;startFill=1;" edge="1" parent="1" source="Ho3f436NwtFqieBIYehu-11">
          <mxGeometry width="50" height="50" relative="1" as="geometry">
            <mxPoint x="110" y="470" as="sourcePoint" />
            <mxPoint x="160" y="410" as="targetPoint" />
            <Array as="points">
              <mxPoint x="160" y="470" />
            </Array>
          </mxGeometry>
        </mxCell>
        <mxCell id="Ho3f436NwtFqieBIYehu-20" value="&lt;font style=&quot;font-size: 20px;&quot;&gt;ora2pg&lt;/font&gt;" style="text;html=1;strokeColor=none;fillColor=none;align=center;verticalAlign=middle;whiteSpace=wrap;rounded=0;" vertex="1" parent="1">
          <mxGeometry x="210" y="430" width="60" height="30" as="geometry" />
        </mxCell>
        <mxCell id="Ho3f436NwtFqieBIYehu-21" value="&lt;font style=&quot;font-size: 20px;&quot;&gt;COPY&lt;br&gt;&lt;/font&gt;" style="text;html=1;strokeColor=none;fillColor=none;align=center;verticalAlign=middle;whiteSpace=wrap;rounded=0;" vertex="1" parent="1">
          <mxGeometry x="520" y="440" width="100" height="30" as="geometry" />
        </mxCell>
        <mxCell id="Ho3f436NwtFqieBIYehu-25" value="SourceDB" style="text;html=1;strokeColor=none;fillColor=none;align=center;verticalAlign=middle;whiteSpace=wrap;rounded=0;" vertex="1" parent="1">
          <mxGeometry x="150" y="200" width="60" height="30" as="geometry" />
        </mxCell>
        <mxCell id="Ho3f436NwtFqieBIYehu-26" value="TargetDB" style="text;html=1;strokeColor=none;fillColor=none;align=center;verticalAlign=middle;whiteSpace=wrap;rounded=0;" vertex="1" parent="1">
          <mxGeometry x="620" y="200" width="60" height="30" as="geometry" />
        </mxCell>
        <mxCell id="Ho3f436NwtFqieBIYehu-27" value="Kafka：connect SourceRecord object to a Record object" style="text;html=1;strokeColor=none;fillColor=none;align=center;verticalAlign=middle;whiteSpace=wrap;rounded=0;fontSize=16;" vertex="1" parent="1">
          <mxGeometry x="240" y="585" width="446" height="30" as="geometry" />
        </mxCell>
      </root>
    </mxGraphModel>
  </diagram>
</mxfile>
